<svg width="520" height="340" xmlns="http://www.w3.org/2000/svg">
 <!-- Created with Method Draw - http://github.com/duopixel/Method-Draw/ -->

 <g>
  <title>background</title>
  <rect x="-1" y="-1" width="522" height="342" id="canvas_background" fill="none"/>
  <g id="canvasGrid" display="none">
   <rect id="svg_2" width="100%" height="100%" x="0" y="0" stroke-width="0" fill="url(#gridpattern)"/>
  </g>
 </g>
 <g>
  <title>Layer 1</title>
  <path stroke="#000" fill="none" stroke-width="6" id="svg_1" d="m45.499999,52.93919c0,0 -0.017836,-0.933359 2.54672,-1.752128c5.90406,-1.884931 23.289734,-7.811207 46.68986,-3.504257c16.922018,3.11461 24.948532,10.211342 27.16501,13.140962c3.04625,4.026382 5.492468,10.486549 5.093439,21.901604c-0.618938,17.705782 -9.420639,39.835732 -21.222664,62.200546c-10.374928,19.660465 -23.106158,34.905883 -28.013916,53.439913c-2.026365,7.652517 -0.097361,14.130626 0.848907,14.893091c3.901558,3.143704 18.049358,4.052095 43.294234,-0.876064c55.835835,-10.899938 71.186935,-22.620318 70.459244,-30.662245c-1.202204,-13.286012 -10.3861,-29.095869 -19.524851,-41.175015c-5.910597,-7.81232 -12.733598,-12.264898 -21.222664,-15.769146c-8.489065,-3.504257 -12.895731,-5.537987 -10.186879,-7.008513c8.09176,-4.392682 23.736964,-7.324019 54.330019,-10.51277c9.329025,-0.97237 10.540117,-0.850658 10.186879,1.752128c-0.8572,6.316195 -3.372298,11.080021 -4.244533,14.893091c-0.97519,4.263138 0.989655,7.640182 2.54672,8.760633c6.30561,4.537478 19.123012,-0.841959 22.07157,-11.388825c3.772464,-13.49399 -1.697813,-27.157989 -2.54672,-31.53831c0,0 0.428155,1.642778 1.697813,7.884577c3.872304,19.036874 3.776429,46.556476 -0.848907,88.482471c-8.053186,72.997792 -17.672197,103.295042 -19.524851,123.525046c-1.360194,14.852643 -2.614895,24.859556 -5.942346,26.281925c-1.568576,0.670522 -9.007323,-4.505274 -14.431411,-25.40586c-7.330002,-28.244641 8.290778,-118.233986 48.387673,-173.460703c28.157933,-38.782782 55.07496,-59.543347 76.401589,-70.961188c15.534616,-8.316906 23.769383,-10.51277 23.769383,-7.008513c0,10.51277 -9.929159,42.166781 -20.373757,66.580867c-4.1428,9.68375 -5.093439,12.264898 -5.942346,12.264898c-0.848907,0 2.614878,-2.363139 16.129224,-14.893082c17.42025,-16.151347 25.467196,-31.53831 27.16501,-33.290438c0,0 1.121261,-0.064338 2.54672,7.008513c1.051473,5.217242 1.37831,10.228119 2.54672,10.51277c5.225334,1.273 32.492985,-16.385773 51.783299,-45.555336c6.220948,-9.406897 4.117749,-11.849407 3.395626,-11.388834c-4.844141,3.089624 -3.99588,12.521489 -3.395626,13.140962c0.600253,0.619474 6.253351,-3.948789 16.978131,4.380321c13.170123,10.228207 12.845408,27.410812 9.337972,28.910117c-2.48014,1.060169 -13.969445,-9.178857 -21.222664,-23.653732c-2.466175,-4.921606 3.16019,-9.603205 19.524851,-14.017026c20.1349,-5.430704 39.049701,-7.008513 40.747514,-7.008513c0,0 -1.984285,-1.147644 -3.395626,-3.504257c-0.631137,-1.053905 -1.697813,-0.876064 -1.697813,0c0,0.876064 0.848907,2.628192 1.697813,3.504257l0.848907,0.876064l0,0.876064"/>
  <path fill="#FFDCEC" stroke-width="0" stroke-opacity="null" d="m482.69826,275.94314c8.33249,-22.67828 40.97949,0 0,29.15778c-40.9795,-29.15778 -8.3325,-51.83606 0,-29.15778z" id="svg_4" transform="rotate(-34.04401397705078 482.69824218750017,285.9031982421875) " stroke="#000"/>
  <path fill="#FFAFCC" stroke-width="0" stroke-opacity="null" d="m445.81254,205.82703c5.36009,-13.94153 26.36108,0 0,17.92482c-26.36107,-17.92482 -5.36008,-31.86635 0,-17.92482z" id="svg_5" transform="rotate(9.395716667175293 445.8125610351562,211.9500122070313) " stroke="#000"/>
  <path stroke="#000" fill="#FFA9A2" stroke-width="0" stroke-opacity="null" d="m373.37091,184.853195c2.739425,-6.411161 13.472599,0 0,8.242918c-13.472599,-8.242918 -2.739433,-14.654078 0,-8.242918z" id="svg_6" transform="rotate(17 373.37091064453136,187.668914794922) "/>
  <path fill="none" stroke="#000" stroke-width="0" stroke-opacity="null" id="svg_7" d="m309.5,291.20001c0,0 0,-1 0,-2c0,-1 -0.70709,-1.29291 0,-2c0.70709,-0.70709 1.69345,-0.4588 3,-1c0.92389,-0.38269 2,-1 4,-1c0,0 1,0 2,0c2,0 4,0 9,5c1,1 2.4588,1.69345 3,3c0.38269,0.92389 0.65482,3.17697 -1,8c-1.45139,4.23007 -4.13412,9.83789 -9,14c-6.12671,5.24057 -8.31,4.3375 -11,6c-1.203,0.7435 1.05664,1.08246 4,-1c4.0817,-2.88785 12.46258,-4.75015 15,-8c0.61542,-0.78821 1,-1 2,-1l1,0l0,1l1,0"/>
  <path fill="none" stroke="#000" stroke-width="0" stroke-opacity="null" id="svg_8" d="m344.5,289.20001c0,0 0,-1 0,-1c0,-1 0,-2 1,-3c1,-1 1.58578,-2.58578 3,-4c0.70709,-0.70709 2,0 3,0c1,0 1.18601,1.69254 3,3c1.14728,0.82691 2.33749,4.31 4,7c0.7435,1.20301 1,3 1,4c0,2 -2,7 -3,10l-1,3l-1,1l1,0"/>
  <path fill="none" stroke="#000" stroke-width="0" stroke-opacity="null" id="svg_9" d="m388.5,254.2c0,-2 0,-3 -1,-3l0,-1l0,1l0,1"/>
  <path fill="none" stroke="#000" stroke-width="0" stroke-opacity="null" id="svg_10" d="m352.5,267.20001c0,-1 0,-2 0,-3c0,0 1.70267,-1.54135 5,-3c3.77063,-1.66803 6.54916,-3.95517 10,-5c0.95709,-0.28978 1,-1.00001 2,-1.00001c1,0 2,1.00001 3,2.00001c1,1 2.2565,1.797 3,3c1.66251,2.69 1,6 1,10c0,5 0.16019,6.01291 0,7c-0.50653,3.12143 -4.15717,8.87625 -12,19c-12.24844,15.81061 -16.95517,22.54917 -18,26c-0.2898,0.95709 -1.29291,1.29291 -2,2c-0.70709,0.70709 -1,1 -2,1l0,1l0,1"/>
  <path fill="none" stroke="#000" stroke-width="0" stroke-opacity="null" id="svg_11" d="m373.5,224.20001c-372.5,-288.20001 -372.5,-288.20001 -372.5,-288.20001l372.5,288.20001l0,-1l-1,-1"/>
  <path fill="none" stroke="#000" stroke-width="0" stroke-opacity="null" id="svg_12" d="m365.5,264.20001c0,0 0,-1 0,-2l0,1" transform="rotate(118.9264144897461 365.50000000000006,263.2000122070313) "/>
 </g>
</svg>